# This file uses centimeters as units for non-parametric coordinates.

mtllib HouseOBJ.mtl
g default
v -2.793951 3.523537 -3.104584
v -2.793951 3.523537 3.104591
v -2.793951 5.272728 -0.000000
v 2.793951 5.272728 -0.000000
v 2.793950 3.523537 -3.104584
v 2.793951 3.523537 3.104591
v -2.420905 0.000000 -2.420899
v -2.420904 0.000000 2.420906
v -2.420905 3.523537 -2.420899
v -2.420904 3.523537 2.420906
v 2.420902 3.523537 -2.420899
v 2.420902 3.523537 2.420906
v 2.420902 0.000000 -2.420899
v 2.420902 0.000000 2.420906
vt 0.375000 0.000000
vt 0.625000 0.000000
vt 0.500000 0.250000
vt 0.500000 0.500000
vt 0.625000 0.750000
vt 0.375000 0.750000
vt 0.625000 1.000000
vt 0.375000 1.000000
vt 0.875000 0.000000
vt 0.875000 0.250000
vt 0.125000 0.000000
vt 0.125000 0.250000
vt 0.375000 0.000000
vt 0.625000 0.000000
vt 0.625000 0.250000
vt 0.375000 0.250000
vt 0.625000 0.500000
vt 0.375000 0.500000
vt 0.625000 0.750000
vt 0.375000 0.750000
vt 0.625000 1.000000
vt 0.375000 1.000000
vt 0.875000 0.000000
vt 0.875000 0.250000
vt 0.125000 0.000000
vt 0.125000 0.250000
vn -1.000000 -0.000001 0.000000
vn -1.000000 -0.000001 0.000000
vn -1.000000 -0.000001 0.000000
vn 1.000000 -0.000001 -0.000000
vn 1.000000 -0.000001 -0.000000
vn 1.000000 -0.000001 -0.000000
vn 0.000000 -1.000000 0.000000
vn 0.000000 -1.000000 0.000000
vn 0.000000 -1.000000 0.000000
vn 0.000000 -1.000000 0.000000
vn 0.000000 0.871233 0.490870
vn 0.000000 0.871233 0.490870
vn 0.000000 0.871233 0.490870
vn 0.000000 0.871233 0.490870
vn 0.000000 0.871232 -0.490871
vn 0.000000 0.871232 -0.490871
vn 0.000000 0.871232 -0.490871
vn 0.000000 0.871232 -0.490871
vn -1.000000 0.000000 0.000000
vn -1.000000 0.000000 0.000000
vn -1.000000 0.000000 0.000000
vn -1.000000 0.000000 0.000000
vn 0.000000 1.000000 0.000000
vn 0.000000 1.000000 0.000000
vn 0.000000 1.000000 0.000000
vn 0.000000 1.000000 0.000000
vn 1.000000 0.000000 0.000000
vn 1.000000 0.000000 0.000000
vn 1.000000 0.000000 0.000000
vn 1.000000 0.000000 0.000000
vn 0.000000 -1.000000 0.000001
vn 0.000000 -1.000000 0.000001
vn 0.000000 -1.000000 0.000001
vn 0.000000 -1.000000 0.000001
vn 0.000000 0.000000 1.000000
vn 0.000000 0.000000 1.000000
vn 0.000000 0.000000 1.000000
vn 0.000000 0.000000 1.000000
vn 0.000000 0.000000 -1.000000
vn 0.000000 0.000000 -1.000000
vn 0.000000 0.000000 -1.000000
vn 0.000000 0.000000 -1.000000
s off
g HouseOBJ
usemtl lambert3SG
f 1/1/1 2/2/2 3/3/3
f 4/4/4 6/5/5 5/6/6
f 5/6/7 6/5/8 2/7/9 1/8/10
f 2/2/11 6/9/12 4/10/13 3/3/14
f 5/11/15 1/1/16 3/3/17 4/12/18
usemtl lambert2SG
f 7/13/19 8/14/20 10/15/21 9/16/22
f 9/16/23 10/15/24 12/17/25 11/18/26
f 11/18/27 12/17/28 14/19/29 13/20/30
f 13/20/31 14/19/32 8/21/33 7/22/34
f 8/14/35 14/23/36 12/24/37 10/15/38
f 13/25/39 7/13/40 9/16/41 11/26/42
